<svg xmlns="http://www.w3.org/2000/svg" viewBox="0 0 64 64">

  <defs>
    <linearGradient id="g" x1="0%" y1="0%" x2="100%" y2="100%">
      <stop offset="0%" stop-color="#0ea5a4"/>
      <stop offset="100%" stop-color="#2563eb"/>
    </linearGradient>
  </defs>

  <!-- Background -->
  <rect x="4" y="4" width="56" height="56" rx="14" fill="url(#g)"/>

  <!-- Document -->
  <path
    d="M20 16h18l8 8v24a4 4 0 0 1-4 4H20a4 4 0 0 1-4-4V20a4 4 0 0 1 4-4z"
    fill="#ffffff"/>

  <!-- Folded corner -->
  <path
    d="M38 16v8h8"
    fill="none"
    stroke="#d1d5db"
    stroke-width="2.5"
    stroke-linecap="round"
    stroke-linejoin="round"/>

  <!-- Text lines -->
  <line x1="23" y1="29" x2="40" y2="29" stroke="#64748b" stroke-width="2.5" stroke-linecap="round"/>
  <line x1="23" y1="35" x2="37" y2="35" stroke="#64748b" stroke-width="2.5" stroke-linecap="round"/>
  <line x1="23" y1="41" x2="34" y2="41" stroke="#64748b" stroke-width="2.5" stroke-linecap="round"/>

  <!-- Pencil -->
  <g transform="translate(40 40) rotate(-45)">
    <rect x="-1" y="-7" width="4" height="14" rx="1" fill="#f59e0b"/>
    <polygon points="-1,-9 3,-9 1,-13" fill="#334155"/>
    <polygon points="-1,7 3,7 1,10" fill="#fde68a"/>
  </g>

</svg>