<svg width="32" height="32" viewBox="0 0 680 680" xmlns="http://www.w3.org/2000/svg">
  <!-- shadow -->
  <rect x="134" y="146" width="420" height="520" rx="28" fill="rgba(0,0,0,0.10)"/>
  <!-- page -->
  <rect x="126" y="136" width="420" height="520" rx="24" fill="#ffffff" stroke="#e2e8f0" stroke-width="1"/>
  <!-- header band -->
  <rect x="126" y="136" width="420" height="110" rx="24" fill="#1a3a5c"/>
  <rect x="126" y="200" width="420" height="46" fill="#1a3a5c"/>
  <!-- name bar -->
  <rect x="162" y="162" width="220" height="22" rx="5" fill="#ffffff" opacity="0.95"/>
  <!-- role bar -->
  <rect x="162" y="193" width="140" height="10" rx="3" fill="#0ea5e9" opacity="0.85"/>
  <!-- divider -->
  <rect x="148" y="268" width="376" height="2.5" rx="1" fill="#cbd5e1"/>
  <!-- EXPERIENCE label -->
  <rect x="148" y="288" width="90" height="9" rx="2" fill="#0ea5e9"/>
  <!-- job title -->
  <rect x="148" y="309" width="200" height="10" rx="2" fill="#1a3a5c"/>
  <rect x="148" y="326" width="140" height="8" rx="2" fill="#94a3b8"/>
  <!-- bullets -->
  <rect x="158" y="345" width="290" height="7" rx="2" fill="#cbd5e1"/>
  <rect x="158" y="358" width="260" height="7" rx="2" fill="#cbd5e1"/>
  <rect x="158" y="371" width="230" height="7" rx="2" fill="#cbd5e1"/>
  <!-- divider -->
  <rect x="148" y="395" width="376" height="2" rx="1" fill="#cbd5e1"/>
  <!-- SKILLS label -->
  <rect x="148" y="413" width="60" height="9" rx="2" fill="#0ea5e9"/>
  <!-- skills grid -->
  <rect x="148" y="433" width="170" height="7" rx="2" fill="#cbd5e1"/>
  <rect x="340" y="433" width="150" height="7" rx="2" fill="#cbd5e1"/>
  <rect x="148" y="447" width="150" height="7" rx="2" fill="#cbd5e1"/>
  <rect x="340" y="447" width="170" height="7" rx="2" fill="#cbd5e1"/>
  <rect x="148" y="461" width="160" height="7" rx="2" fill="#cbd5e1"/>
  <rect x="340" y="461" width="130" height="7" rx="2" fill="#cbd5e1"/>
  <!-- divider -->
  <rect x="148" y="484" width="376" height="2" rx="1" fill="#cbd5e1"/>
  <!-- CERTS label -->
  <rect x="148" y="502" width="80" height="9" rx="2" fill="#0ea5e9"/>
  <!-- cert lines -->
  <rect x="148" y="521" width="230" height="7" rx="2" fill="#94a3b8"/>
  <rect x="148" y="535" width="200" height="7" rx="2" fill="#cbd5e1"/>
  <rect x="148" y="549" width="215" height="7" rx="2" fill="#cbd5e1"/>
  <!-- JSON badge -->
  <rect x="446" y="516" width="58" height="58" rx="12" fill="#0ea5e9"/>
  <text x="475" y="543" font-family="Arial,sans-serif" font-size="11" font-weight="700" fill="#fff" text-anchor="middle">{  }</text>
  <text x="475" y="560" font-family="Arial,sans-serif" font-size="9" fill="rgba(255,255,255,0.8)" text-anchor="middle">JSON</text>
</svg>
